<svg width="70" height="39" viewBox="0 0 70 39" fill="none" xmlns="http://www.w3.org/2000/svg">
<g clip-path="url(#clip0_157_19)">
<path d="M48.799 28.7381C46.5282 28.7171 44.4963 28.9046 42.5248 29.8412C42.0079 30.0524 41.5357 30.4445 41.1504 30.9827C40.765 31.5212 40.4786 32.1884 40.3167 32.9252C40.1213 33.7436 39.9355 34.5659 39.7158 35.3534C39.5023 36.1691 39.1488 36.8936 38.6879 37.4603C38.2274 38.0267 37.6743 38.4164 37.0807 38.5934C35.5578 39.1235 33.9696 39.1352 32.4426 38.6282C31.7837 38.4416 31.1712 38.0048 30.6692 37.3631C30.1672 36.7214 29.7938 35.8979 29.5879 34.9787C29.4557 34.5014 29.3423 34.0136 29.2478 33.5183C28.8641 31.2668 27.7999 30.1049 26.2989 29.5427C23.7699 28.5959 21.1951 28.5887 18.6227 28.8107C12.6791 29.3207 6.84415 30.8921 1.02123 32.5748C0.23454 32.8001 -0.0429726 32.5121 0.0052902 31.3466C0.0541392 29.6588 0.486438 28.0406 1.236 26.7399C1.52131 26.23 1.92965 25.8931 2.37982 25.7963C7.09512 24.7001 11.8225 23.7843 16.6005 23.4998C20.5436 23.2639 24.4553 23.4443 28.3018 24.8597C28.6469 24.988 28.9847 25.1476 29.3274 25.2933C29.9169 25.5373 30.4594 25.973 30.913 26.5668C31.3666 27.1605 31.7192 27.8963 31.9433 28.7171C32.1419 29.5046 32.3889 30.2651 32.6818 30.9893C33.5939 32.9771 35.8959 32.9597 36.7575 30.9233C37.0081 30.2903 37.2228 29.6291 37.3993 28.946C37.9593 26.948 38.9607 25.7338 40.4063 25.1302C42.5058 24.2813 44.6626 23.7568 46.8397 23.5657C52.081 23.0593 57.2789 23.7808 62.4648 24.8111C63.9728 25.1095 65.4739 25.4702 66.9822 25.772C67.2429 25.8245 67.4935 25.9531 67.7184 26.15C67.9433 26.3469 68.1378 26.6078 68.2901 26.9168C68.9435 28.1513 69.3326 29.6327 69.4096 31.1801C69.4846 32.495 69.2142 32.8001 68.3406 32.5676C63.0149 31.0346 57.6747 29.6225 52.2546 28.9565C51.1068 28.7861 49.9529 28.7129 48.799 28.7381Z" fill="#24D66B"/>
<path d="M39.0488 23.3996C40.2061 22.455 41.4283 21.6898 42.6948 21.1164C46.3872 19.3118 50.1914 18.2802 54.049 17.6066C56.6254 17.1598 59.2118 16.9223 61.8029 16.7202C62.6755 16.6493 63.1519 17.174 63.5044 18.1667C63.7777 18.9262 63.9429 19.7582 63.9905 20.6129C64.0272 21.244 63.9227 21.5206 63.446 21.4851C62.294 21.3929 61.137 21.3646 59.9823 21.3114C53.8291 21.0219 47.6704 21.544 41.5815 22.8714C40.8064 23.0486 39.9919 23.2046 39.0488 23.3996Z" fill="#E72F2F"/>
<path d="M30.3722 23.3996C27.4848 22.8101 24.5999 22.2713 21.7027 21.8952C18.1759 21.4228 14.6341 21.2393 11.0937 21.3455C9.3837 21.3998 7.67374 21.4685 5.96378 21.5661C5.52651 21.5914 5.36772 21.36 5.44101 20.7416C5.46863 20.2375 5.53252 19.7393 5.63155 19.2553C6.19339 17.2265 6.44989 16.6262 7.95222 16.7239C13.1114 17.0855 18.2291 17.8486 23.2563 19.6603C25.6234 20.5138 27.9489 21.5553 30.1327 23.1899C30.211 23.2622 30.2915 23.3345 30.3722 23.3996Z" fill="#E72F2F"/>
<path d="M29.2865 21.1712C28.2917 20.5669 27.3417 19.9793 26.3846 19.4117C21.9538 16.7942 17.3316 15.1649 12.5983 14.1066C11.7452 13.9163 10.8992 13.6826 10.0461 13.4889C9.76965 13.4289 9.70349 13.2519 9.80983 12.9047C9.89413 12.5339 9.99192 12.1695 10.1029 11.8129C10.6983 10.1035 11.2466 9.74632 12.5487 10.2204C17.23 11.9264 21.7175 14.3303 25.9073 17.7724C26.9335 18.6202 27.9252 19.5487 28.8776 20.5535C29.0624 20.6829 29.2076 20.9023 29.2865 21.1712Z" fill="#24AFDB"/>
<path d="M39.0488 21.1712C40.3009 19.6961 41.6803 18.4217 43.1582 17.3743C47.6534 14.0314 52.4542 11.742 57.4325 10.0854C57.5803 10.0246 57.7371 10.0121 57.8895 10.0491C58.0415 10.086 58.1849 10.1712 58.3067 10.2975C58.9453 10.9459 59.4041 11.8557 59.6114 12.8851C59.7165 13.3356 59.6613 13.5212 59.2784 13.604C57.7407 13.9353 56.2081 14.2931 54.6753 14.6509C49.4402 15.8389 44.3475 17.9435 39.5321 20.9094C39.3642 21.0055 39.2065 21.085 39.0488 21.1712Z" fill="#24AFDB"/>
<path d="M50.9815 10.0286C50.5662 9.35799 50.1999 8.67356 49.6698 8.03138C47.508 5.41673 44.1145 3.769 39.7284 2.97319C34.2675 1.98296 29.0228 2.33681 24.1421 4.24664C20.8429 5.53906 18.6664 7.41685 17.5595 9.79412C17.5333 9.85094 17.5014 9.90772 17.4696 9.96305C17.4639 9.97179 17.4389 9.97544 17.3558 10.006C17.3483 9.26956 17.4627 8.53468 17.6971 7.81367C18.7688 4.57721 21.7382 2.30405 26.4676 1.05533C32.5122 -0.540697 38.4884 -0.357943 44.1337 1.81911C48.2782 3.41661 50.4093 5.87834 50.8836 8.94152C50.9246 9.20728 50.9496 9.47376 50.9759 9.74245C50.9815 9.83564 50.9815 9.93247 50.9815 10.0286Z" fill="#24AFDB"/>
<path d="M22.8501 14.4856C22.3933 11.0703 24.1285 8.1174 28.5856 6.60469C32.6755 5.21527 36.8488 5.22609 40.9166 6.64217C44.6602 7.94495 46.4594 10.2024 46.6335 13.152C46.6549 13.5746 46.6398 13.9977 46.5883 14.4189C44.2302 10.3673 39.8557 8.5572 33.9387 8.75461C28.6693 8.92706 24.8549 10.7971 22.8501 14.4856Z" fill="#24AFDB"/>
<path d="M29.3193 17.8283C29.1117 15.6937 29.9004 13.8482 31.9263 12.9027C33.7853 12.0343 35.6824 12.0411 37.5314 12.9262C39.2327 13.7404 40.0507 15.1513 40.13 16.9947C40.1397 17.2589 40.1327 17.5233 40.1094 17.7866C39.0375 15.2543 37.3562 15.0426 34.7106 15.0426C32.2773 15.0426 30.2305 15.523 29.3193 17.8283Z" fill="#24AFDB"/>
<path d="M32.5767 21.762C32.3345 20.2941 33.3573 18.9429 34.7104 18.9429C36.0636 18.9429 37.0864 20.2941 36.8442 21.762L35.8245 27.9462C35.7265 28.5399 35.2577 28.9714 34.7104 28.9714C34.1632 28.9714 33.6944 28.5399 33.5964 27.9462L32.5767 21.762Z" fill="#E72F2F"/>
</g>
<defs>
<clipPath id="clip0_157_19">
<rect width="70" height="39" fill="white"/>
</clipPath>
</defs>
</svg>
