<svg width="48" height="48" viewBox="0 0 48 48" fill="none" xmlns="http://www.w3.org/2000/svg">
<path d="M41 4H11C9.93913 4 8.92172 4.42143 8.17157 5.17157C7.42143 5.92172 7 6.93913 7 8V14H3V18H7V22H3V26H7V30H3V34H7V40C7 41.0609 7.42143 42.0783 8.17157 42.8284C8.92172 43.5786 9.93913 44 11 44H41C41.5304 44 42.0391 43.7893 42.4142 43.4142C42.7893 43.0391 43 42.5304 43 42V6C43 5.46957 42.7893 4.96086 42.4142 4.58579C42.0391 4.21071 41.5304 4 41 4V4ZM25 9.998C28.296 9.998 31 12.7 31 15.998C30.9942 17.5877 30.3603 19.1107 29.2364 20.2349C28.1125 21.3592 26.5897 21.9937 25 22C21.706 22 19 19.294 19 15.998C19 12.7 21.706 9.998 25 9.998ZM37 36H13V34.5C13 30.062 18.41 25.5 25 25.5C31.59 25.5 37 30.062 37 34.5V36Z" fill="white"/>
</svg>
