<svg width="49" height="48" viewBox="0 0 49 48" fill="none" xmlns="http://www.w3.org/2000/svg">
<path d="M38 4H18C15.794 4 14 5.794 14 8V20H10C7.794 20 6 21.794 6 24V42C6 42.5304 6.21071 43.0391 6.58579 43.4142C6.96086 43.7893 7.46957 44 8 44H40C40.5304 44 41.0391 43.7893 41.4142 43.4142C41.7893 43.0391 42 42.5304 42 42V8C42 5.794 40.206 4 38 4ZM10 24H22V40H10V24ZM38 40H26V24C26 21.794 24.206 20 22 20H18V8H38V40Z" fill="white"/>
<path d="M22 12H26V16H22V12ZM30 12H34V16H30V12ZM30 20.062H34V24H30V20.062ZM30 28H34V32H30V28ZM14 28.002H18V32.002H14V28.002Z" fill="white"/>
</svg>
