<svg width="156" height="43" viewBox="0 0 156 43" fill="none" xmlns="http://www.w3.org/2000/svg">
<path fill-rule="evenodd" clip-rule="evenodd" d="M33.4283 2.07784C34.1088 1.58961 33.7694 0.5 32.9368 0.5H12.7197C12.4997 0.5 12.2851 0.569243 12.1053 0.698237L0.361564 9.12371C-0.120522 9.46957 -0.120521 10.1971 0.361564 10.543L9.73559 17.2683C9.91539 17.3973 10.13 17.4665 10.35 17.4665H17.9265C18.2799 17.4665 18.5663 17.175 18.5663 16.8154V15.7374C18.5663 15.2168 19.1368 14.9067 19.5619 15.1962L24.8095 18.7703C25.1881 19.0282 25.1881 19.5948 24.8095 19.8526L19.5619 23.4267C19.1368 23.7163 18.5663 23.4062 18.5663 22.8856V21.5906C18.5663 21.2309 18.2799 20.9394 17.9265 20.9394H10.2488C10.0288 20.9394 9.81423 21.0086 9.63443 21.1376L1.57172 26.9222C0.891196 27.4104 1.23061 28.5 2.06322 28.5H22.2803C22.5003 28.5 22.7149 28.4308 22.8947 28.3018L34.6384 19.8763C35.1205 19.5304 35.1205 18.8029 34.6384 18.457L25.4916 11.8947C25.3118 11.7657 25.0972 11.6964 24.8772 11.6964H16.8602C16.5069 11.6964 16.2204 11.988 16.2204 12.3476V13.4255C16.2204 13.9461 15.6499 14.2562 15.2248 13.9667L9.97721 10.3926C9.59859 10.1348 9.59859 9.56819 9.97721 9.31031L15.2248 5.73625C15.6499 5.44671 16.2204 5.75681 16.2204 6.27741V7.57241C16.2204 7.93204 16.5069 8.22357 16.8602 8.22357H24.5241C24.744 8.22357 24.9586 8.15433 25.1384 8.02534L33.4283 2.07784Z" fill="#2A3235"/>
<path d="M53.9858 10.5653C53.9176 9.87784 53.625 9.34375 53.108 8.96307C52.5909 8.58239 51.8892 8.39204 51.0028 8.39204C50.4006 8.39204 49.892 8.47727 49.4773 8.64773C49.0625 8.8125 48.7443 9.04261 48.5227 9.33807C48.3068 9.63352 48.1989 9.96875 48.1989 10.3438C48.1875 10.6562 48.2528 10.929 48.3949 11.1619C48.5426 11.3949 48.7443 11.5966 49 11.767C49.2557 11.9318 49.5511 12.0767 49.8864 12.2017C50.2216 12.321 50.5795 12.4233 50.9602 12.5085L52.5284 12.8835C53.2898 13.054 53.9886 13.2812 54.625 13.5653C55.2614 13.8494 55.8125 14.1989 56.2784 14.6136C56.7443 15.0284 57.1051 15.517 57.3608 16.0795C57.6222 16.642 57.7557 17.2869 57.7614 18.0142C57.7557 19.0824 57.483 20.0085 56.9432 20.7926C56.4091 21.571 55.6364 22.1761 54.625 22.608C53.6193 23.0341 52.4063 23.2472 50.9858 23.2472C49.5767 23.2472 48.3494 23.0312 47.304 22.5994C46.2642 22.1676 45.4517 21.5284 44.8665 20.6818C44.2869 19.8295 43.983 18.7756 43.9545 17.5199H47.5256C47.5653 18.1051 47.733 18.5937 48.0284 18.9858C48.3295 19.3722 48.7301 19.6648 49.2301 19.8636C49.7358 20.0568 50.3068 20.1534 50.9432 20.1534C51.5682 20.1534 52.1108 20.0625 52.571 19.8807C53.0369 19.6989 53.3977 19.446 53.6534 19.1222C53.9091 18.7983 54.0369 18.4261 54.0369 18.0057C54.0369 17.6136 53.9205 17.2841 53.6875 17.017C53.4602 16.75 53.125 16.5227 52.6818 16.3352C52.2443 16.1477 51.7074 15.9773 51.071 15.8239L49.1705 15.3466C47.6989 14.9886 46.5369 14.429 45.6847 13.6676C44.8324 12.9062 44.4091 11.8807 44.4148 10.5909C44.4091 9.53409 44.6903 8.6108 45.2585 7.82102C45.8324 7.03125 46.6193 6.41477 47.6193 5.97159C48.6193 5.52841 49.7557 5.30682 51.0284 5.30682C52.3239 5.30682 53.4545 5.52841 54.4205 5.97159C55.392 6.41477 56.1477 7.03125 56.6875 7.82102C57.2273 8.6108 57.5057 9.52557 57.5227 10.5653H53.9858ZM60.1754 23V9.90909H63.8061V23H60.1754ZM61.9993 8.22159C61.4595 8.22159 60.9964 8.04261 60.6101 7.68466C60.2294 7.32102 60.0391 6.88636 60.0391 6.38068C60.0391 5.88068 60.2294 5.4517 60.6101 5.09375C60.9964 4.73011 61.4595 4.54829 61.9993 4.54829C62.5391 4.54829 62.9993 4.73011 63.38 5.09375C63.7663 5.4517 63.9595 5.88068 63.9595 6.38068C63.9595 6.88636 63.7663 7.32102 63.38 7.68466C62.9993 8.04261 62.5391 8.22159 61.9993 8.22159ZM66.7145 23V9.90909H70.1747V12.2188H70.3281C70.6009 11.4517 71.0554 10.8466 71.6918 10.4034C72.3281 9.96023 73.0895 9.73864 73.9759 9.73864C74.8736 9.73864 75.6378 9.96307 76.2685 10.4119C76.8991 10.8551 77.3196 11.4574 77.5298 12.2188H77.6662C77.9332 11.4688 78.4162 10.8693 79.1151 10.4205C79.8196 9.96591 80.652 9.73864 81.6122 9.73864C82.8338 9.73864 83.8253 10.1278 84.5866 10.9062C85.3537 11.679 85.7372 12.7756 85.7372 14.196V23H82.1151V14.9119C82.1151 14.1847 81.9219 13.6392 81.5355 13.2756C81.1491 12.9119 80.6662 12.7301 80.0866 12.7301C79.4276 12.7301 78.9134 12.9403 78.544 13.3608C78.1747 13.7756 77.9901 14.3239 77.9901 15.0057V23H74.4702V14.8352C74.4702 14.1932 74.2855 13.6818 73.9162 13.3011C73.5526 12.9205 73.0724 12.7301 72.4759 12.7301C72.0724 12.7301 71.7088 12.8324 71.3849 13.0369C71.0668 13.2358 70.8139 13.517 70.6264 13.8807C70.4389 14.2386 70.3452 14.6591 70.3452 15.142V23H66.7145ZM88.6733 23V5.54545H92.304V12.108H92.4148C92.5739 11.7557 92.804 11.3977 93.1051 11.0341C93.4119 10.6648 93.8097 10.358 94.2983 10.1136C94.7926 9.86364 95.4063 9.73864 96.1392 9.73864C97.0938 9.73864 97.9744 9.98864 98.7812 10.4886C99.5881 10.983 100.233 11.7301 100.716 12.7301C101.199 13.7244 101.44 14.9716 101.44 16.4716C101.44 17.9318 101.205 19.1648 100.733 20.1705C100.267 21.1705 99.6307 21.929 98.8239 22.446C98.0227 22.9574 97.125 23.2131 96.1307 23.2131C95.4261 23.2131 94.8267 23.0966 94.3324 22.8636C93.8438 22.6307 93.4432 22.3381 93.1307 21.9858C92.8182 21.6278 92.5795 21.267 92.4148 20.9034H92.2528V23H88.6733ZM92.2273 16.4545C92.2273 17.233 92.3352 17.9119 92.5511 18.4915C92.767 19.071 93.0795 19.5227 93.4886 19.8466C93.8977 20.1648 94.3949 20.3239 94.9801 20.3239C95.571 20.3239 96.071 20.1619 96.4801 19.8381C96.8892 19.5085 97.1989 19.054 97.4091 18.4744C97.625 17.8892 97.733 17.2159 97.733 16.4545C97.733 15.6989 97.6278 15.0341 97.4176 14.4602C97.2074 13.8864 96.8977 13.4375 96.4886 13.1136C96.0795 12.7898 95.5767 12.6278 94.9801 12.6278C94.3892 12.6278 93.8892 12.7841 93.4801 13.0966C93.0767 13.4091 92.767 13.8523 92.5511 14.4261C92.3352 15 92.2273 15.6761 92.2273 16.4545ZM103.863 23V9.90909H107.494V23H103.863ZM105.687 8.22159C105.147 8.22159 104.684 8.04261 104.298 7.68466C103.917 7.32102 103.727 6.88636 103.727 6.38068C103.727 5.88068 103.917 5.4517 104.298 5.09375C104.684 4.73011 105.147 4.54829 105.687 4.54829C106.227 4.54829 106.687 4.73011 107.067 5.09375C107.454 5.4517 107.647 5.88068 107.647 6.38068C107.647 6.88636 107.454 7.32102 107.067 7.68466C106.687 8.04261 106.227 8.22159 105.687 8.22159ZM116.317 23.2557C114.993 23.2557 113.848 22.9744 112.882 22.4119C111.922 21.8437 111.18 21.054 110.658 20.0426C110.135 19.0256 109.874 17.8466 109.874 16.5057C109.874 15.1534 110.135 13.9716 110.658 12.9602C111.18 11.9432 111.922 11.1534 112.882 10.5909C113.848 10.0227 114.993 9.73864 116.317 9.73864C117.641 9.73864 118.783 10.0227 119.743 10.5909C120.709 11.1534 121.453 11.9432 121.976 12.9602C122.499 13.9716 122.76 15.1534 122.76 16.5057C122.76 17.8466 122.499 19.0256 121.976 20.0426C121.453 21.054 120.709 21.8437 119.743 22.4119C118.783 22.9744 117.641 23.2557 116.317 23.2557ZM116.334 20.4432C116.936 20.4432 117.439 20.2727 117.842 19.9318C118.246 19.5852 118.55 19.1136 118.754 18.517C118.964 17.9205 119.07 17.2415 119.07 16.4801C119.07 15.7188 118.964 15.0398 118.754 14.4432C118.55 13.8466 118.246 13.375 117.842 13.0284C117.439 12.6818 116.936 12.5085 116.334 12.5085C115.726 12.5085 115.214 12.6818 114.8 13.0284C114.391 13.375 114.081 13.8466 113.871 14.4432C113.666 15.0398 113.564 15.7188 113.564 16.4801C113.564 17.2415 113.666 17.9205 113.871 18.517C114.081 19.1136 114.391 19.5852 114.8 19.9318C115.214 20.2727 115.726 20.4432 116.334 20.4432ZM136.013 13.642L132.689 13.8466C132.632 13.5625 132.51 13.3068 132.322 13.0795C132.135 12.8466 131.888 12.6619 131.581 12.5256C131.28 12.3835 130.919 12.3125 130.499 12.3125C129.936 12.3125 129.462 12.4318 129.075 12.6705C128.689 12.9034 128.496 13.2159 128.496 13.608C128.496 13.9205 128.621 14.1847 128.871 14.4006C129.121 14.6165 129.55 14.7898 130.158 14.9205L132.527 15.3977C133.8 15.6591 134.749 16.0795 135.374 16.6591C135.999 17.2386 136.311 18 136.311 18.9432C136.311 19.8011 136.058 20.554 135.553 21.2017C135.053 21.8494 134.365 22.3551 133.49 22.7188C132.621 23.0767 131.618 23.2557 130.482 23.2557C128.749 23.2557 127.368 22.8949 126.339 22.1733C125.317 21.446 124.717 20.4574 124.541 19.2074L128.112 19.0199C128.22 19.5483 128.482 19.9517 128.896 20.2301C129.311 20.5028 129.842 20.6392 130.49 20.6392C131.126 20.6392 131.638 20.517 132.024 20.2727C132.416 20.0227 132.615 19.7017 132.621 19.3097C132.615 18.9801 132.476 18.7102 132.203 18.5C131.93 18.2841 131.51 18.1193 130.942 18.0057L128.675 17.554C127.396 17.2983 126.445 16.8551 125.82 16.2244C125.2 15.5937 124.891 14.7898 124.891 13.8125C124.891 12.9716 125.118 12.2472 125.572 11.6392C126.033 11.0312 126.678 10.5625 127.507 10.233C128.342 9.90341 129.32 9.73864 130.439 9.73864C132.092 9.73864 133.393 10.0881 134.342 10.7869C135.297 11.4858 135.854 12.4375 136.013 13.642Z" fill="url(#paint0_linear_102_332)"/>
<path d="M2.14432 41H0.543324V36.0545H2.19503C2.67959 36.0545 3.09574 36.1536 3.44347 36.3516C3.79119 36.548 4.05762 36.8305 4.24276 37.1991C4.4295 37.5662 4.52287 38.0065 4.52287 38.52C4.52287 39.0352 4.42869 39.4779 4.24034 39.8482C4.0536 40.2184 3.78314 40.5034 3.42898 40.703C3.07481 40.901 2.64659 41 2.14432 41ZM1.28949 40.348H2.10327C2.47997 40.348 2.79309 40.2772 3.04261 40.1355C3.29214 39.9922 3.47888 39.7854 3.60284 39.5149C3.7268 39.2429 3.78878 38.9112 3.78878 38.52C3.78878 38.1321 3.7268 37.8028 3.60284 37.5324C3.48049 37.2619 3.29777 37.0567 3.05469 36.9166C2.8116 36.7766 2.50975 36.7065 2.14915 36.7065H1.28949V40.348ZM12.2149 36.0545V41H11.4687V36.0545H12.2149ZM22.6664 37.6169C22.6197 37.4704 22.557 37.3392 22.4781 37.2233C22.4008 37.1058 22.3082 37.006 22.2004 36.9239C22.0925 36.8402 21.9694 36.7766 21.8309 36.7331C21.6941 36.6896 21.5436 36.6679 21.3794 36.6679C21.1009 36.6679 20.8497 36.7395 20.626 36.8828C20.4022 37.0261 20.2251 37.2362 20.0947 37.5131C19.9659 37.7884 19.9015 38.1256 19.9015 38.5249C19.9015 38.9257 19.9667 39.2646 20.0971 39.5415C20.2275 39.8184 20.4062 40.0285 20.6332 40.1717C20.8602 40.315 21.1186 40.3866 21.4083 40.3866C21.6772 40.3866 21.9114 40.3319 22.111 40.2224C22.3123 40.113 22.4676 39.9584 22.5771 39.7588C22.6882 39.5576 22.7437 39.3209 22.7437 39.0489L22.9369 39.0851H21.5218V38.4693H23.4657V39.032C23.4657 39.4473 23.3772 39.8079 23.2001 40.1138C23.0246 40.418 22.7815 40.6531 22.4708 40.8189C22.1617 40.9847 21.8076 41.0676 21.4083 41.0676C20.9608 41.0676 20.568 40.9646 20.2299 40.7585C19.8935 40.5525 19.6311 40.2603 19.4427 39.882C19.2544 39.502 19.1602 39.0513 19.1602 38.5297C19.1602 38.1353 19.2149 37.7811 19.3244 37.4672C19.4339 37.1533 19.5876 36.8868 19.7856 36.6679C19.9852 36.4473 20.2195 36.2791 20.4883 36.1632C20.7588 36.0457 21.0542 35.9869 21.3745 35.9869C21.6418 35.9869 21.8905 36.0264 22.1207 36.1053C22.3525 36.1841 22.5586 36.296 22.7389 36.4409C22.9208 36.5858 23.0713 36.758 23.1904 36.9577C23.3096 37.1557 23.3901 37.3754 23.4319 37.6169H22.6664ZM31.1771 36.0545V41H30.4309V36.0545H31.1771ZM38.0378 36.6969V36.0545H41.8653V36.6969H40.3222V41H39.5785V36.6969H38.0378ZM48.5624 41H47.7704L49.5501 36.0545H50.4121L52.1918 41H51.3998L50.0016 36.9528H49.963L48.5624 41ZM48.6952 39.0634H51.2645V39.6912H48.6952V39.0634ZM58.924 41V36.0545H59.6701V40.3577H61.9111V41H58.924ZM77.0156 41H76.2236L78.0033 36.0545H78.8653L80.645 41H79.853L78.4548 36.9528H78.4162L77.0156 41ZM77.1484 39.0634H79.7178V39.6912H77.1484V39.0634ZM90.4917 37.6169C90.445 37.4704 90.3822 37.3392 90.3033 37.2233C90.226 37.1058 90.1335 37.006 90.0256 36.9239C89.9177 36.8402 89.7946 36.7766 89.6561 36.7331C89.5193 36.6896 89.3688 36.6679 89.2046 36.6679C88.9261 36.6679 88.6749 36.7395 88.4512 36.8828C88.2274 37.0261 88.0503 37.2362 87.9199 37.5131C87.7911 37.7884 87.7267 38.1256 87.7267 38.5249C87.7267 38.9257 87.7919 39.2646 87.9223 39.5415C88.0527 39.8184 88.2314 40.0285 88.4584 40.1717C88.6854 40.315 88.9438 40.3866 89.2336 40.3866C89.5024 40.3866 89.7366 40.3319 89.9363 40.2224C90.1375 40.113 90.2928 39.9584 90.4023 39.7588C90.5134 39.5576 90.5689 39.3209 90.5689 39.0489L90.7621 39.0851H89.3471V38.4693H91.2909V39.032C91.2909 39.4473 91.2024 39.8079 91.0253 40.1138C90.8498 40.418 90.6068 40.6531 90.2961 40.8189C89.987 40.9847 89.6328 41.0676 89.2336 41.0676C88.786 41.0676 88.3932 40.9646 88.0551 40.7585C87.7187 40.5525 87.4563 40.2603 87.2679 39.882C87.0796 39.502 86.9854 39.0513 86.9854 38.5297C86.9854 38.1353 87.0401 37.7811 87.1496 37.4672C87.2591 37.1533 87.4128 36.8868 87.6108 36.6679C87.8105 36.4473 88.0447 36.2791 88.3135 36.1632C88.584 36.0457 88.8794 35.9869 89.1998 35.9869C89.467 35.9869 89.7157 36.0264 89.9459 36.1053C90.1777 36.1841 90.3838 36.296 90.5641 36.4409C90.746 36.5858 90.8965 36.758 91.0157 36.9577C91.1348 37.1557 91.2153 37.3754 91.2571 37.6169H90.4917ZM98.2561 41V36.0545H101.357V36.6969H99.0023V38.2037H101.195V38.8436H99.0023V40.3577H101.386V41H98.2561ZM112.363 36.0545V41H111.677L109.163 37.373H109.118V41H108.371V36.0545H109.062L111.578 39.6864H111.624V36.0545H112.363ZM123.577 37.6628H122.824C122.795 37.5018 122.741 37.3601 122.662 37.2378C122.583 37.1154 122.486 37.0116 122.372 36.9263C122.258 36.841 122.13 36.7766 121.988 36.7331C121.848 36.6896 121.699 36.6679 121.541 36.6679C121.256 36.6679 121.001 36.7395 120.776 36.8828C120.552 37.0261 120.375 37.2362 120.245 37.5131C120.116 37.79 120.051 38.128 120.051 38.5273C120.051 38.9297 120.116 39.2694 120.245 39.5463C120.375 39.8232 120.553 40.0325 120.778 40.1741C121.004 40.3158 121.257 40.3866 121.539 40.3866C121.695 40.3866 121.843 40.3657 121.983 40.3239C122.125 40.2804 122.253 40.2168 122.367 40.1331C122.482 40.0494 122.578 39.9472 122.657 39.8264C122.737 39.7041 122.793 39.564 122.824 39.4062L123.577 39.4087C123.537 39.6518 123.459 39.8755 123.343 40.08C123.228 40.2828 123.081 40.4583 122.901 40.6064C122.722 40.7529 122.518 40.8664 122.288 40.9469C122.057 41.0274 121.806 41.0676 121.534 41.0676C121.106 41.0676 120.724 40.9662 120.39 40.7634C120.055 40.5589 119.791 40.2667 119.597 39.8868C119.406 39.5069 119.31 39.0537 119.31 38.5273C119.31 37.9992 119.407 37.5461 119.6 37.1678C119.793 36.7878 120.057 36.4964 120.392 36.2936C120.727 36.0892 121.108 35.9869 121.534 35.9869C121.797 35.9869 122.041 36.0248 122.268 36.1004C122.497 36.1745 122.702 36.2839 122.884 36.4288C123.066 36.5721 123.216 36.7476 123.336 36.9553C123.455 37.1613 123.535 37.3972 123.577 37.6628ZM130.106 36.0545H130.954L132.246 38.3027H132.299L133.591 36.0545H134.438L132.644 39.0585V41H131.901V39.0585L130.106 36.0545Z" fill="#2A3235"/>
<defs>
<linearGradient id="paint0_linear_102_332" x1="43" y1="16.816" x2="127.946" y2="16.816" gradientUnits="userSpaceOnUse">
<stop stop-color="#2A3235"/>
<stop offset="1" stop-color="#2A3235" stop-opacity="0.7"/>
</linearGradient>
</defs>
</svg>
