<svg width="24" height="25" viewBox="0 0 24 25" fill="none" xmlns="http://www.w3.org/2000/svg">
<path d="M21.579 6.92514C21.719 6.46014 21.579 6.11914 20.917 6.11914H18.724C18.166 6.11914 17.911 6.41414 17.771 6.73814C17.771 6.73814 16.656 9.45714 15.076 11.2201C14.566 11.7331 14.333 11.8951 14.055 11.8951C13.916 11.8951 13.714 11.7331 13.714 11.2681V6.92514C13.714 6.36714 13.553 6.11914 13.088 6.11914H9.642C9.294 6.11914 9.084 6.37714 9.084 6.62314C9.084 7.15114 9.874 7.27314 9.955 8.76114V11.9891C9.955 12.6961 9.828 12.8251 9.548 12.8251C8.805 12.8251 6.997 10.0961 5.924 6.97214C5.715 6.36514 5.504 6.12014 4.944 6.12014H2.752C2.125 6.12014 2 6.41514 2 6.73914C2 7.32114 2.743 10.2011 5.461 14.0101C7.273 16.6111 9.824 18.0211 12.148 18.0211C13.541 18.0211 13.713 17.7081 13.713 17.1681V15.2021C13.713 14.5761 13.846 14.4501 14.287 14.4501C14.611 14.4501 15.169 14.6141 16.47 15.8671C17.956 17.3531 18.202 18.0201 19.037 18.0201H21.229C21.855 18.0201 22.168 17.7071 21.988 17.0891C21.791 16.4741 21.081 15.5791 20.139 14.5201C19.627 13.9161 18.862 13.2661 18.629 12.9411C18.304 12.5221 18.398 12.3371 18.629 11.9651C18.63 11.9661 21.301 8.20414 21.579 6.92514V6.92514Z" fill="#2A3235"/>
</svg>
