<svg width="25" height="25" viewBox="0 0 25 25" fill="none" xmlns="http://www.w3.org/2000/svg">
<path d="M22.4254 7.80604C22.3115 7.38344 22.0889 6.99804 21.7797 6.6882C21.4706 6.37837 21.0857 6.1549 20.6634 6.04003C19.0974 5.61003 12.8324 5.60303 12.8324 5.60303C12.8324 5.60303 6.56836 5.59603 5.00136 6.00703C4.57929 6.12718 4.19518 6.35381 3.88593 6.66517C3.57667 6.97653 3.35265 7.36216 3.23536 7.78504C2.82236 9.35104 2.81836 12.599 2.81836 12.599C2.81836 12.599 2.81436 15.863 3.22436 17.413C3.45436 18.27 4.12936 18.947 4.98736 19.178C6.56936 19.608 12.8174 19.615 12.8174 19.615C12.8174 19.615 19.0824 19.622 20.6484 19.212C21.0709 19.0974 21.4561 18.8744 21.766 18.5652C22.0759 18.256 22.2997 17.8713 22.4154 17.449C22.8294 15.884 22.8324 12.637 22.8324 12.637C22.8324 12.637 22.8524 9.37204 22.4254 7.80604V7.80604ZM10.8284 15.608L10.8334 9.60804L16.0404 12.613L10.8284 15.608V15.608Z" fill="#2A3235"/>
</svg>
