<svg width="25" height="25" viewBox="0 0 25 25" fill="none" xmlns="http://www.w3.org/2000/svg">
<path d="M12.4043 2.5542C6.8903 2.5542 2.4043 7.0402 2.4043 12.5542C2.4043 18.0682 6.8903 22.5542 12.4043 22.5542C17.9183 22.5542 22.4043 18.0682 22.4043 12.5542C22.4043 7.0402 17.9183 2.5542 12.4043 2.5542ZM12.4043 20.5542C7.9933 20.5542 4.4043 16.9652 4.4043 12.5542C4.4043 8.1432 7.9933 4.5542 12.4043 4.5542C16.8153 4.5542 20.4043 8.1432 20.4043 12.5542C20.4043 16.9652 16.8153 20.5542 12.4043 20.5542Z" fill="#2A3235"/>
<path d="M10.4024 14.1412L8.10341 11.8462L6.69141 13.2622L10.4044 16.9672L17.1104 10.2612L15.6964 8.84717L10.4024 14.1412Z" fill="#2A3235"/>
</svg>
