<svg width="25" height="25" viewBox="0 0 25 25" fill="none" xmlns="http://www.w3.org/2000/svg">
<path d="M12.5233 2.49609C7.03531 2.49609 2.57031 6.98209 2.57031 12.4961C2.57031 18.0101 7.05631 22.4961 12.5703 22.4961C18.0843 22.4961 22.5703 18.0101 22.5703 12.4961C22.5703 6.98209 18.0633 2.49609 12.5233 2.49609ZM12.5703 20.4961C8.15931 20.4961 4.57031 16.9071 4.57031 12.4961C4.57031 8.08509 8.13731 4.49609 12.5233 4.49609C16.9613 4.49609 20.5703 8.08509 20.5703 12.4961C20.5703 16.9071 16.9813 20.4961 12.5703 20.4961Z" fill="#2A3235"/>
<path d="M11.5703 7.49609H13.5703V14.4961H11.5703V7.49609ZM11.5703 15.4961H13.5703V17.4961H11.5703V15.4961Z" fill="#2A3235"/>
</svg>
