<svg width="25" height="25" viewBox="0 0 25 25" fill="none" xmlns="http://www.w3.org/2000/svg">
<path d="M9.53903 20.5875L18.832 11.2945L14.418 6.88049L5.12503 16.1735C4.9971 16.3016 4.90622 16.4619 4.86203 16.6375L3.83203 21.8805L9.07403 20.8505C9.25003 20.8065 9.41103 20.7155 9.53903 20.5875V20.5875ZM21.832 8.29449C22.207 7.91944 22.4176 7.41082 22.4176 6.88049C22.4176 6.35017 22.207 5.84155 21.832 5.46649L20.246 3.88049C19.871 3.50555 19.3624 3.29492 18.832 3.29492C18.3017 3.29492 17.7931 3.50555 17.418 3.88049L15.832 5.46649L20.246 9.8805L21.832 8.29449Z" fill="white"/>
</svg>
