<svg width="200" height="39" viewBox="0 0 200 39" fill="none" xmlns="http://www.w3.org/2000/svg">
<g clip-path="url(#clip0_64_258)">
<path d="M48.799 28.7381C46.5282 28.7171 44.4963 28.9046 42.5248 29.8412C42.0079 30.0524 41.5357 30.4445 41.1504 30.9827C40.765 31.5212 40.4786 32.1884 40.3167 32.9252C40.1213 33.7436 39.9355 34.5659 39.7158 35.3534C39.5023 36.1691 39.1488 36.8936 38.6879 37.4603C38.2274 38.0267 37.6743 38.4164 37.0807 38.5934C35.5578 39.1235 33.9696 39.1352 32.4426 38.6282C31.7837 38.4416 31.1712 38.0048 30.6692 37.3631C30.1672 36.7214 29.7938 35.8979 29.5879 34.9787C29.4557 34.5014 29.3423 34.0136 29.2478 33.5183C28.8641 31.2668 27.7999 30.1049 26.2989 29.5427C23.7699 28.5959 21.1951 28.5887 18.6227 28.8107C12.6791 29.3207 6.84415 30.8921 1.02123 32.5748C0.23454 32.8001 -0.0429726 32.5121 0.00529019 31.3466C0.0541392 29.6588 0.486438 28.0406 1.236 26.7399C1.52131 26.23 1.92965 25.8931 2.37982 25.7963C7.09512 24.7001 11.8225 23.7843 16.6005 23.4998C20.5436 23.2639 24.4553 23.4443 28.3018 24.8597C28.6469 24.988 28.9847 25.1476 29.3274 25.2933C29.9169 25.5373 30.4594 25.973 30.913 26.5668C31.3666 27.1605 31.7192 27.8963 31.9433 28.7171C32.1419 29.5046 32.3889 30.2651 32.6818 30.9893C33.5939 32.9771 35.8959 32.9597 36.7575 30.9233C37.0081 30.2903 37.2228 29.6291 37.3993 28.946C37.9593 26.948 38.9607 25.7338 40.4063 25.1302C42.5058 24.2813 44.6626 23.7568 46.8397 23.5657C52.081 23.0593 57.2789 23.7808 62.4648 24.8111C63.9728 25.1095 65.4739 25.4702 66.9822 25.772C67.2429 25.8245 67.4935 25.9531 67.7184 26.15C67.9433 26.3469 68.1378 26.6078 68.2901 26.9168C68.9435 28.1513 69.3326 29.6327 69.4096 31.1801C69.4846 32.495 69.2142 32.8001 68.3406 32.5676C63.0149 31.0346 57.6747 29.6225 52.2546 28.9565C51.1068 28.7861 49.9529 28.7129 48.799 28.7381Z" fill="#24D66B"/>
<path d="M39.0488 23.3996C40.2061 22.455 41.4283 21.6898 42.6948 21.1164C46.3872 19.3118 50.1914 18.2802 54.049 17.6066C56.6254 17.1598 59.2118 16.9223 61.8029 16.7202C62.6755 16.6493 63.1519 17.174 63.5044 18.1667C63.7777 18.9262 63.9429 19.7582 63.9905 20.6129C64.0272 21.244 63.9227 21.5206 63.446 21.4851C62.294 21.3929 61.137 21.3646 59.9823 21.3114C53.8291 21.0219 47.6704 21.544 41.5815 22.8714C40.8064 23.0486 39.9919 23.2046 39.0488 23.3996Z" fill="#E72F2F"/>
<path d="M30.3722 23.3996C27.4848 22.8101 24.5999 22.2713 21.7027 21.8952C18.1759 21.4228 14.6341 21.2393 11.0937 21.3455C9.3837 21.3998 7.67374 21.4685 5.96378 21.5661C5.52651 21.5914 5.36772 21.36 5.44101 20.7416C5.46863 20.2375 5.53252 19.7393 5.63155 19.2553C6.19339 17.2265 6.44989 16.6262 7.95222 16.7239C13.1114 17.0855 18.2291 17.8486 23.2563 19.6603C25.6234 20.5138 27.9489 21.5553 30.1327 23.1899C30.211 23.2622 30.2915 23.3345 30.3722 23.3996Z" fill="#E72F2F"/>
<path d="M29.2865 21.1712C28.2917 20.5669 27.3417 19.9793 26.3846 19.4117C21.9538 16.7942 17.3316 15.1649 12.5983 14.1066C11.7452 13.9163 10.8992 13.6826 10.0461 13.4889C9.76965 13.4289 9.70349 13.2519 9.80983 12.9047C9.89413 12.5339 9.99192 12.1695 10.1029 11.8129C10.6983 10.1035 11.2466 9.74632 12.5487 10.2204C17.23 11.9264 21.7175 14.3303 25.9073 17.7724C26.9335 18.6202 27.9252 19.5487 28.8776 20.5535C29.0624 20.6829 29.2076 20.9023 29.2865 21.1712Z" fill="#24AFDB"/>
<path d="M39.0488 21.1712C40.3009 19.6961 41.6803 18.4217 43.1582 17.3743C47.6534 14.0314 52.4542 11.742 57.4325 10.0854C57.5803 10.0246 57.7371 10.0121 57.8895 10.0491C58.0415 10.086 58.1849 10.1712 58.3067 10.2975C58.9453 10.9459 59.4041 11.8557 59.6114 12.8851C59.7165 13.3356 59.6613 13.5212 59.2784 13.604C57.7407 13.9353 56.2081 14.2931 54.6753 14.6509C49.4402 15.8389 44.3475 17.9435 39.5321 20.9094C39.3642 21.0055 39.2065 21.085 39.0488 21.1712Z" fill="#24AFDB"/>
<path d="M50.9815 10.0286C50.5662 9.35799 50.1999 8.67356 49.6698 8.03138C47.508 5.41673 44.1145 3.769 39.7284 2.97319C34.2675 1.98296 29.0228 2.33681 24.1421 4.24664C20.8429 5.53906 18.6664 7.41685 17.5595 9.79412C17.5333 9.85094 17.5014 9.90772 17.4696 9.96305C17.4639 9.97179 17.4389 9.97544 17.3558 10.006C17.3483 9.26956 17.4627 8.53468 17.6971 7.81367C18.7688 4.57721 21.7382 2.30405 26.4676 1.05533C32.5122 -0.540696 38.4884 -0.357942 44.1337 1.81911C48.2782 3.41661 50.4093 5.87834 50.8836 8.94152C50.9246 9.20728 50.9496 9.47376 50.9759 9.74245C50.9815 9.83564 50.9815 9.93247 50.9815 10.0286Z" fill="#24AFDB"/>
<path d="M22.8501 14.4856C22.3933 11.0703 24.1285 8.1174 28.5856 6.60469C32.6755 5.21527 36.8488 5.22609 40.9166 6.64217C44.6602 7.94495 46.4594 10.2024 46.6335 13.152C46.6549 13.5746 46.6398 13.9977 46.5883 14.4189C44.2302 10.3673 39.8557 8.5572 33.9387 8.75461C28.6693 8.92706 24.8549 10.7971 22.8501 14.4856Z" fill="#24AFDB"/>
<path d="M29.3193 17.8283C29.1117 15.6937 29.9004 13.8482 31.9263 12.9027C33.7853 12.0343 35.6824 12.0411 37.5314 12.9262C39.2327 13.7404 40.0507 15.1513 40.13 16.9947C40.1397 17.2589 40.1327 17.5233 40.1094 17.7866C39.0375 15.2543 37.3562 15.0426 34.7106 15.0426C32.2773 15.0426 30.2305 15.523 29.3193 17.8283Z" fill="#24AFDB"/>
<path d="M32.5767 21.762C32.3345 20.2941 33.3573 18.9429 34.7104 18.9429C36.0636 18.9429 37.0864 20.2941 36.8442 21.762L35.8245 27.9462C35.7265 28.5399 35.2577 28.9714 34.7104 28.9714C34.1632 28.9714 33.6944 28.5399 33.5964 27.9462L32.5767 21.762Z" fill="#E72F2F"/>
<path d="M79.6631 11.1969H77.8945L79.1234 3.16211H80.5934L82.4998 7.96851L84.4062 3.16211H85.8762L87.105 11.1969H85.3364L84.7278 6.40252L82.8099 11.1969H82.1897L80.2718 6.40252L79.6631 11.1969ZM90.9724 7.77578H93.2119C93.1506 7.51879 93.0396 7.30999 92.8788 7.14938C92.6721 6.94861 92.4118 6.84822 92.0979 6.84822C91.761 6.84822 91.4816 6.96467 91.2595 7.19756C91.1064 7.36621 91.0107 7.55894 90.9724 7.77578ZM94.7393 8.63105V8.81174H90.915C90.915 9.18116 91.0183 9.48632 91.2251 9.72725C91.4241 9.95211 91.7074 10.0645 92.0749 10.0645C92.3505 10.0645 92.5726 10.0123 92.741 9.90794C92.8712 9.83566 92.9898 9.68709 93.097 9.46223L94.6589 9.63088C94.4828 10.2171 94.1536 10.6668 93.6712 10.98C93.2501 11.2451 92.7104 11.3776 92.0519 11.3776C91.1791 11.3776 90.4977 11.1206 90.0077 10.6066C89.4947 10.0686 89.2383 9.37791 89.2383 8.53468C89.2383 7.68342 89.4986 6.97672 90.0192 6.41456C90.5092 5.9006 91.1638 5.64361 91.983 5.64361C92.8482 5.64361 93.5258 5.91264 94.0158 6.4507C94.4981 6.98876 94.7393 7.71555 94.7393 8.63105ZM99.9631 5.8243H101.571V7.98056L103.029 5.8243H104.913L103.052 8.34194L105.12 11.1969H103.098L101.571 8.87197V11.1969H99.9631V8.87197L98.4357 11.1969H96.4144L98.4816 8.34194L96.6211 5.8243H98.5046L99.9631 7.98056V5.8243ZM107.046 11.1969V5.8243H112.133V11.1969H110.48V7.22165H108.7V11.1969H107.046ZM119.675 6.51093C120.188 7.04899 120.445 7.71554 120.445 8.51059C120.445 9.30563 120.188 9.97219 119.675 10.5102C119.124 11.0885 118.377 11.3776 117.436 11.3776C116.494 11.3776 115.747 11.0885 115.196 10.5102C114.683 9.97219 114.427 9.30563 114.427 8.51059C114.427 7.71554 114.683 7.04899 115.196 6.51093C115.747 5.93272 116.494 5.64361 117.436 5.64361C118.377 5.64361 119.124 5.93272 119.675 6.51093ZM118.366 7.49871C118.121 7.24173 117.811 7.11324 117.436 7.11324C117.061 7.11324 116.75 7.24173 116.505 7.49871C116.253 7.76373 116.126 8.10102 116.126 8.51059C116.126 8.92016 116.253 9.25745 116.505 9.52246C116.75 9.77945 117.064 9.90794 117.447 9.90794C117.815 9.90794 118.121 9.77945 118.366 9.52246C118.619 9.25745 118.745 8.92016 118.745 8.51059C118.745 8.10102 118.619 7.76373 118.366 7.49871ZM126.587 5.94476V7.52281C126.273 7.24976 125.913 7.11324 125.507 7.11324C125.124 7.11324 124.81 7.24173 124.565 7.49871C124.313 7.76373 124.186 8.10102 124.186 8.51059C124.186 8.89606 124.301 9.21729 124.531 9.47428C124.783 9.76339 125.117 9.90794 125.53 9.90794C125.92 9.90794 126.273 9.7674 126.587 9.48633V11.0523C126.211 11.2692 125.775 11.3776 125.277 11.3776C124.481 11.3776 123.819 11.1085 123.29 10.5705C122.755 10.0244 122.487 9.34177 122.487 8.52264C122.487 7.67138 122.77 6.96467 123.336 6.40252C123.849 5.89658 124.5 5.64361 125.289 5.64361C125.748 5.64361 126.181 5.744 126.587 5.94476ZM130.43 7.77578H132.669C132.608 7.51879 132.497 7.30999 132.336 7.14938C132.129 6.94861 131.869 6.84822 131.555 6.84822C131.218 6.84822 130.939 6.96467 130.717 7.19756C130.564 7.36621 130.468 7.55894 130.43 7.77578ZM134.197 8.63105V8.81174H130.372C130.372 9.18116 130.476 9.48632 130.682 9.72725C130.881 9.95211 131.165 10.0645 131.532 10.0645C131.808 10.0645 132.03 10.0123 132.198 9.90794C132.328 9.83566 132.447 9.68709 132.554 9.46223L134.116 9.63088C133.94 10.2171 133.611 10.6668 133.128 10.98C132.707 11.2451 132.168 11.3776 131.509 11.3776C130.636 11.3776 129.955 11.1206 129.465 10.6066C128.952 10.0686 128.695 9.37791 128.695 8.53468C128.695 7.68342 128.956 6.97672 129.476 6.41456C129.966 5.9006 130.621 5.64361 131.44 5.64361C132.305 5.64361 132.983 5.91264 133.473 6.4507C133.955 6.98876 134.197 7.71555 134.197 8.63105ZM141.499 5.8243V11.1969H139.846V7.22165H138.502V8.87197C138.502 9.69111 138.333 10.3014 137.997 10.703C137.667 11.0804 137.197 11.2692 136.584 11.2692C136.362 11.2692 136.148 11.241 135.941 11.1848V9.81157C136.293 9.91597 136.557 9.86377 136.733 9.65497C136.871 9.46223 136.94 9.17714 136.94 8.7997V5.8243H141.499ZM145.529 7.77578H147.768C147.707 7.51879 147.596 7.30999 147.435 7.14938C147.228 6.94861 146.968 6.84822 146.654 6.84822C146.317 6.84822 146.038 6.96467 145.816 7.19756C145.663 7.36621 145.567 7.55894 145.529 7.77578ZM149.296 8.63105V8.81174H145.471C145.471 9.18116 145.575 9.48632 145.781 9.72725C145.98 9.95211 146.264 10.0645 146.631 10.0645C146.907 10.0645 147.129 10.0123 147.297 9.90794C147.428 9.83566 147.546 9.68709 147.653 9.46223L149.215 9.63088C149.039 10.2171 148.71 10.6668 148.228 10.98C147.807 11.2451 147.267 11.3776 146.608 11.3776C145.735 11.3776 145.054 11.1206 144.564 10.6066C144.051 10.0686 143.795 9.37791 143.795 8.53468C143.795 7.68342 144.055 6.97672 144.576 6.41456C145.066 5.9006 145.72 5.64361 146.539 5.64361C147.405 5.64361 148.082 5.91264 148.572 6.4507C149.054 6.98876 149.296 7.71555 149.296 8.63105ZM151.591 11.1969V5.8243H153.245V7.69145H155.094V5.8243H156.747V11.1969H155.094V9.0888H153.245V11.1969H151.591ZM162.301 11.1969V9.38996C161.964 9.47829 161.619 9.52246 161.267 9.52246C160.486 9.52246 159.924 9.3498 159.579 9.00448C159.265 8.69128 159.108 8.22951 159.108 7.61918V5.8243H160.739V7.37825C160.739 7.64327 160.808 7.84002 160.946 7.96851C161.076 8.08897 161.298 8.14921 161.612 8.14921C161.872 8.14921 162.102 8.11307 162.301 8.04079V5.8243H163.955V11.1969H162.301ZM167.981 7.77578H170.22C170.159 7.51879 170.048 7.30999 169.887 7.14938C169.68 6.94861 169.42 6.84822 169.106 6.84822C168.769 6.84822 168.49 6.96467 168.268 7.19756C168.115 7.36621 168.019 7.55894 167.981 7.77578ZM171.748 8.63105V8.81174H167.923C167.923 9.18116 168.027 9.48632 168.233 9.72725C168.433 9.95211 168.716 10.0645 169.083 10.0645C169.359 10.0645 169.581 10.0123 169.749 9.90794C169.88 9.83566 169.998 9.68709 170.105 9.46223L171.667 9.63088C171.491 10.2171 171.162 10.6668 170.68 10.98C170.259 11.2451 169.719 11.3776 169.06 11.3776C168.188 11.3776 167.506 11.1206 167.016 10.6066C166.503 10.0686 166.247 9.37791 166.247 8.53468C166.247 7.68342 166.507 6.97672 167.028 6.41456C167.518 5.9006 168.172 5.64361 168.991 5.64361C169.857 5.64361 170.534 5.91264 171.024 6.4507C171.506 6.98876 171.748 7.71555 171.748 8.63105ZM177.89 5.94476V7.52281C177.576 7.24976 177.216 7.11324 176.811 7.11324C176.428 7.11324 176.114 7.24173 175.869 7.49871C175.616 7.76373 175.49 8.10102 175.49 8.51059C175.49 8.89606 175.605 9.21729 175.835 9.47428C176.087 9.76339 176.42 9.90794 176.834 9.90794C177.224 9.90794 177.576 9.7674 177.89 9.48633V11.0523C177.515 11.2692 177.079 11.3776 176.581 11.3776C175.785 11.3776 175.122 11.1085 174.594 10.5705C174.058 10.0244 173.79 9.34177 173.79 8.52264C173.79 7.67138 174.074 6.96467 174.64 6.40252C175.153 5.89658 175.804 5.64361 176.592 5.64361C177.052 5.64361 177.484 5.744 177.89 5.94476ZM180.252 11.1969V5.8243H181.906V7.95647L183.583 5.8243H185.638L183.445 8.31785L185.788 11.1969H183.652L181.906 8.81174V11.1969H180.252ZM191.645 6.42661V5.8243H193.299V11.1969H191.645V10.5464C191.301 11.1005 190.795 11.3776 190.129 11.3776C189.341 11.3776 188.701 11.1045 188.211 10.5584C187.714 10.0043 187.465 9.33374 187.465 8.54673C187.465 7.65531 187.729 6.93255 188.257 6.37842C188.724 5.88855 189.318 5.64361 190.037 5.64361C190.742 5.64361 191.278 5.90461 191.645 6.42661ZM190.451 7.13733C190.091 7.13733 189.788 7.26582 189.543 7.52281C189.291 7.78782 189.164 8.11307 189.164 8.49854C189.164 8.88402 189.279 9.20525 189.509 9.46223C189.762 9.74331 190.087 9.88385 190.485 9.88385C190.822 9.88385 191.109 9.75937 191.346 9.51042C191.614 9.2454 191.748 8.90811 191.748 8.49854C191.748 8.08898 191.622 7.75971 191.369 7.51076C191.124 7.26181 190.818 7.13733 190.451 7.13733ZM195.408 11.1969L196.878 9.25745C196.526 9.1932 196.231 9.0366 195.994 8.78765C195.733 8.52264 195.603 8.16125 195.603 7.7035C195.603 7.14938 195.76 6.70769 196.074 6.37842C196.434 6.00901 196.997 5.8243 197.762 5.8243H200.209V11.1969H198.555V9.402H198.394L197.2 11.1969H195.408ZM198.555 8.26967V7.05301H197.969C197.732 7.05301 197.56 7.09718 197.452 7.18551C197.322 7.29795 197.257 7.46258 197.257 7.67941C197.257 7.84805 197.311 7.98859 197.418 8.10102C197.54 8.21345 197.736 8.26967 198.004 8.26967H198.555ZM78.2505 22.3729V14.3382H80.0191V20.8069H82.8558V14.3382H84.6244V20.8069H85.658V24.1798H84.0731V22.3729H78.2505ZM89.2702 18.9518H91.5096C91.4484 18.6948 91.3374 18.486 91.1766 18.3254C90.9699 18.1247 90.7095 18.0243 90.3956 18.0243C90.0588 18.0243 89.7793 18.1407 89.5573 18.3736C89.4041 18.5423 89.3084 18.735 89.2702 18.9518ZM93.037 19.8071V19.9878H89.2127C89.2127 20.3572 89.3161 20.6624 89.5228 20.9033C89.7219 21.1282 90.0052 21.2406 90.3727 21.2406C90.6483 21.2406 90.8703 21.1884 91.0388 21.084C91.1689 21.0117 91.2876 20.8631 91.3948 20.6383L92.9567 20.8069C92.7806 21.3932 92.4513 21.8429 91.969 22.1561C91.5479 22.4211 91.0081 22.5536 90.3497 22.5536C89.4769 22.5536 88.7955 22.2966 88.3055 21.7827C87.7925 21.2446 87.536 20.554 87.536 19.7107C87.536 18.8595 87.7963 18.1528 88.317 17.5906C88.807 17.0766 89.4616 16.8197 90.2808 16.8197C91.1459 16.8197 91.8235 17.0887 92.3135 17.6268C92.7959 18.1648 93.037 18.8916 93.037 19.8071ZM95.4475 22.3729V17.0004H97.1012V18.8675H98.9502V17.0004H100.604V22.3729H98.9502V20.2649H97.1012V22.3729H95.4475ZM107.122 18.3977H105.744V22.3729H104.09V18.3977H102.712V17.0004H107.122V18.3977ZM110.893 21.7586V25.1315H109.24V17.0004H110.893V17.6388C111.292 17.0927 111.824 16.8197 112.49 16.8197C113.217 16.8197 113.822 17.0726 114.304 17.5786C114.817 18.1166 115.074 18.8153 115.074 19.6746C115.074 20.5419 114.802 21.2607 114.258 21.8309C113.799 22.3127 113.221 22.5536 112.524 22.5536C111.797 22.5536 111.253 22.2886 110.893 21.7586ZM112.088 18.3134C111.728 18.3134 111.422 18.4459 111.169 18.7109C110.909 18.984 110.779 19.3132 110.779 19.6987C110.779 20.0601 110.901 20.3773 111.146 20.6503C111.406 20.9234 111.72 21.0599 112.088 21.0599C112.425 21.0599 112.719 20.9354 112.972 20.6865C113.24 20.4215 113.374 20.0802 113.374 19.6626C113.374 19.269 113.244 18.9438 112.984 18.6868C112.731 18.4379 112.432 18.3134 112.088 18.3134ZM121.409 17.6027V17.0004H123.063V22.3729H121.409V21.7224C121.064 22.2766 120.559 22.5536 119.893 22.5536C119.104 22.5536 118.465 22.2806 117.975 21.7345C117.477 21.1804 117.229 20.5098 117.229 19.7228C117.229 18.8314 117.493 18.1086 118.021 17.5545C118.488 17.0646 119.081 16.8197 119.801 16.8197C120.506 16.8197 121.041 17.0807 121.409 17.6027ZM120.215 18.3134C119.855 18.3134 119.552 18.4419 119.307 18.6989C119.055 18.9639 118.928 19.2891 118.928 19.6746C118.928 20.0601 119.043 20.3813 119.273 20.6383C119.526 20.9194 119.851 21.0599 120.249 21.0599C120.586 21.0599 120.873 20.9354 121.11 20.6865C121.378 20.4215 121.512 20.0842 121.512 19.6746C121.512 19.265 121.386 18.9358 121.133 18.6868C120.888 18.4379 120.582 18.3134 120.215 18.3134ZM130.73 17.0004V22.3729H129.077V18.3977H127.733V20.048C127.733 20.8672 127.565 21.4775 127.228 21.879C126.899 22.2565 126.428 22.4452 125.815 22.4452C125.593 22.4452 125.379 22.4171 125.172 22.3609V20.9876C125.524 21.092 125.788 21.0398 125.964 20.831C126.102 20.6383 126.171 20.3532 126.171 19.9758V17.0004H130.73ZM133.393 17.0004H135.047V20.0721L137.229 17.0004H138.768V22.3729H137.114V19.253L134.932 22.3729H133.393V17.0004ZM141.892 18.6145L141.261 17.4581C141.536 17.2734 141.82 17.1248 142.111 17.0124C142.455 16.8839 142.857 16.8197 143.316 16.8197C144.113 16.8197 144.691 17.0044 145.051 17.3738C145.303 17.6308 145.43 17.96 145.43 18.3616C145.43 18.747 145.326 19.0522 145.119 19.2771C144.982 19.4216 144.836 19.522 144.683 19.5782C144.966 19.6505 145.196 19.779 145.372 19.9637C145.602 20.1966 145.717 20.4937 145.717 20.8551C145.717 21.2888 145.567 21.6622 145.269 21.9754C144.894 22.3609 144.266 22.5536 143.385 22.5536C142.857 22.5536 142.39 22.4733 141.984 22.3127C141.647 22.1762 141.341 21.9875 141.065 21.7465L141.766 20.6021C141.973 20.7869 142.183 20.9314 142.398 21.0358C142.65 21.1482 142.914 21.2045 143.19 21.2045C143.443 21.2045 143.642 21.1603 143.787 21.0719C143.94 20.9756 144.017 20.8391 144.017 20.6624C144.017 20.5018 143.937 20.3813 143.776 20.301C143.63 20.2367 143.431 20.2046 143.179 20.2046H142.558V19.0241H143.029C143.297 19.0241 143.504 18.992 143.649 18.9277C143.81 18.8474 143.891 18.727 143.891 18.5664C143.891 18.4138 143.806 18.2973 143.638 18.217C143.493 18.1528 143.32 18.1206 143.121 18.1206C142.884 18.1206 142.658 18.1688 142.444 18.2652C142.229 18.3616 142.045 18.478 141.892 18.6145ZM153.123 17.687C153.636 18.225 153.892 18.8916 153.892 19.6866C153.892 20.4817 153.636 21.1482 153.123 21.6863C152.572 22.2645 151.825 22.5536 150.883 22.5536C149.942 22.5536 149.195 22.2645 148.644 21.6863C148.131 21.1482 147.874 20.4817 147.874 19.6866C147.874 18.8916 148.131 18.225 148.644 17.687C149.195 17.1088 149.942 16.8197 150.883 16.8197C151.825 16.8197 152.572 17.1088 153.123 17.687ZM151.814 18.6748C151.569 18.4178 151.259 18.2893 150.883 18.2893C150.508 18.2893 150.198 18.4178 149.953 18.6748C149.7 18.9398 149.574 19.2771 149.574 19.6866C149.574 20.0962 149.7 20.4335 149.953 20.6985C150.198 20.9555 150.512 21.084 150.895 21.084C151.262 21.084 151.569 20.9555 151.814 20.6985C152.066 20.4335 152.193 20.0962 152.193 19.6866C152.193 19.2771 152.066 18.9398 151.814 18.6748ZM156.302 17.0004H159.047C159.636 17.0004 160.061 17.1168 160.321 17.3497C160.597 17.5986 160.735 17.948 160.735 18.3977C160.735 18.7591 160.631 19.0482 160.425 19.265C160.318 19.3935 160.176 19.4899 160 19.5541C160.298 19.6184 160.547 19.7469 160.746 19.9396C160.968 20.1725 161.079 20.4777 161.079 20.8551C161.079 21.2807 160.953 21.6261 160.7 21.8911C160.394 22.2123 159.969 22.3729 159.426 22.3729H156.302V17.0004ZM157.956 19.1446H158.633C158.809 19.1446 158.947 19.1084 159.047 19.0362C159.161 18.9478 159.219 18.8153 159.219 18.6386C159.219 18.478 159.169 18.3535 159.07 18.2652C158.978 18.1929 158.825 18.1568 158.61 18.1568H157.956V19.1446ZM157.956 21.2165H158.702C158.932 21.2165 159.096 21.1683 159.196 21.0719C159.303 20.9756 159.357 20.835 159.357 20.6503C159.357 20.4977 159.303 20.3733 159.196 20.2769C159.089 20.1805 158.901 20.1324 158.633 20.1324H157.956V21.2165ZM167.372 17.6027V17.0004H169.026V22.3729H167.372V21.7224C167.028 22.2766 166.522 22.5536 165.856 22.5536C165.068 22.5536 164.428 22.2806 163.938 21.7345C163.441 21.1804 163.192 20.5098 163.192 19.7228C163.192 18.8314 163.456 18.1086 163.984 17.5545C164.451 17.0646 165.045 16.8197 165.764 16.8197C166.469 16.8197 167.005 17.0807 167.372 17.6027ZM166.178 18.3134C165.818 18.3134 165.515 18.4419 165.27 18.6989C165.018 18.9639 164.891 19.2891 164.891 19.6746C164.891 20.0601 165.006 20.3813 165.236 20.6383C165.489 20.9194 165.814 21.0599 166.212 21.0599C166.549 21.0599 166.836 20.9354 167.074 20.6865C167.341 20.4215 167.475 20.0842 167.475 19.6746C167.475 19.265 167.349 18.9358 167.096 18.6868C166.851 18.4379 166.545 18.3134 166.178 18.3134ZM171.686 22.3729V17.0004H173.34V18.8675H175.189V17.0004H176.843V22.3729H175.189V20.2649H173.34V22.3729H171.686ZM179.502 22.3729V17.0004H181.156V18.8675H183.005V17.0004H184.659V22.3729H183.005V20.2649H181.156V22.3729H179.502ZM191.245 17.6027V17.0004H192.899V22.3729H191.245V21.7224C190.901 22.2766 190.395 22.5536 189.729 22.5536C188.941 22.5536 188.301 22.2806 187.811 21.7345C187.314 21.1804 187.065 20.5098 187.065 19.7228C187.065 18.8314 187.329 18.1086 187.857 17.5545C188.324 17.0646 188.918 16.8197 189.638 16.8197C190.342 16.8197 190.878 17.0807 191.245 17.6027ZM190.051 18.3134C189.691 18.3134 189.389 18.4419 189.144 18.6989C188.891 18.9639 188.765 19.2891 188.765 19.6746C188.765 20.0601 188.88 20.3813 189.109 20.6383C189.362 20.9194 189.687 21.0599 190.085 21.0599C190.422 21.0599 190.709 20.9354 190.947 20.6865C191.215 20.4215 191.349 20.0842 191.349 19.6746C191.349 19.265 191.222 18.9358 190.97 18.6868C190.725 18.4379 190.418 18.3134 190.051 18.3134ZM195.123 22.3729L196.593 20.4335C196.241 20.3693 195.946 20.2127 195.709 19.9637C195.449 19.6987 195.318 19.3373 195.318 18.8796C195.318 18.3254 195.475 17.8837 195.789 17.5545C196.149 17.1851 196.712 17.0004 197.478 17.0004H199.924V22.3729H198.27V20.5781H198.109L196.915 22.3729H195.123ZM198.27 19.4457V18.2291H197.684C197.447 18.2291 197.275 18.2732 197.167 18.3616C197.037 18.474 196.972 18.6386 196.972 18.8555C196.972 19.0241 197.026 19.1646 197.133 19.2771C197.255 19.3895 197.451 19.4457 197.719 19.4457H198.27ZM78.2505 34.603V26.5683H82.9821V28.1343H80.0191V29.7364H81.0068C81.9638 29.7364 82.6835 29.9854 83.1659 30.4833C83.5793 30.9169 83.786 31.4751 83.786 32.1577C83.786 32.8724 83.5793 33.4466 83.1659 33.8803C82.7065 34.3621 81.937 34.603 80.8575 34.603H78.2505ZM80.0191 33.1093H80.7197C81.1485 33.1093 81.4662 33.025 81.6729 32.8563C81.872 32.6716 81.9715 32.4347 81.9715 32.1456C81.9715 31.8164 81.8567 31.5674 81.627 31.3988C81.4356 31.2542 81.1331 31.1819 80.7197 31.1819H80.0191V33.1093ZM85.034 29.2305H86.6878V32.3022L88.8698 29.2305H90.4087V34.603H88.755V31.4831L86.5729 34.603H85.034V29.2305ZM96.0255 25.8094H97.4726C97.419 26.3956 97.2161 26.8654 96.8639 27.2188C96.6113 27.4838 96.1978 27.7006 95.6236 27.8693L95.0494 28.0379C94.345 28.2467 93.8818 28.4555 93.6598 28.6643C93.3535 28.9614 93.1774 29.3389 93.1315 29.7966H93.1889C93.6176 29.3068 94.2034 29.0618 94.946 29.0618C95.7729 29.0618 96.4352 29.3148 96.9328 29.8207C97.4381 30.3347 97.6908 30.9932 97.6908 31.7963C97.6908 32.6716 97.4152 33.3904 96.8639 33.9525C96.328 34.5067 95.6006 34.7837 94.6819 34.7837C93.8014 34.7837 93.097 34.5187 92.5687 33.9887C91.9639 33.3623 91.6615 32.4388 91.6615 31.2181C91.6615 29.5557 91.9983 28.3471 92.6721 27.5922C93.0702 27.1505 93.6827 26.8333 94.5096 26.6406L94.8197 26.5683C95.4169 26.4318 95.7767 26.2912 95.8992 26.1467C95.9834 26.0503 96.0255 25.9379 96.0255 25.8094ZM94.6704 30.5315C94.3029 30.5315 93.9966 30.6599 93.7516 30.9169C93.4913 31.19 93.3612 31.5273 93.3612 31.9288C93.3612 32.3143 93.4875 32.6395 93.7402 32.9045C93.9852 33.1615 94.3029 33.29 94.6933 33.29C95.0226 33.29 95.3097 33.1736 95.5547 32.9407C95.8456 32.6596 95.9911 32.3062 95.9911 31.8806C95.9911 31.5273 95.8648 31.21 95.6121 30.929C95.3594 30.664 95.0455 30.5315 94.6704 30.5315ZM103.853 29.2305V34.603H102.199V30.6278H100.856V32.2781C100.856 33.0973 100.687 33.7076 100.35 34.1091C100.021 34.4866 99.5503 34.6753 98.9378 34.6753C98.7158 34.6753 98.5014 34.6472 98.2947 34.591V33.2177C98.6469 33.3221 98.911 33.2699 99.0871 33.0611C99.2249 32.8684 99.2938 32.5833 99.2938 32.2059V29.2305H103.853ZM105.264 29.2305H106.918V32.3022L109.1 29.2305H110.639V34.603H108.985V31.4831L106.803 34.603H105.264V29.2305ZM117.048 29.9171C117.561 30.4552 117.818 31.1217 117.818 31.9168C117.818 32.7118 117.561 33.3784 117.048 33.9164C116.497 34.4946 115.75 34.7837 114.809 34.7837C113.867 34.7837 113.12 34.4946 112.569 33.9164C112.056 33.3784 111.8 32.7118 111.8 31.9168C111.8 31.1217 112.056 30.4552 112.569 29.9171C113.12 29.3389 113.867 29.0498 114.809 29.0498C115.75 29.0498 116.497 29.3389 117.048 29.9171ZM115.739 30.9049C115.494 30.6479 115.184 30.5194 114.809 30.5194C114.433 30.5194 114.123 30.6479 113.878 30.9049C113.626 31.1699 113.499 31.5072 113.499 31.9168C113.499 32.3263 113.626 32.6636 113.878 32.9286C114.123 33.1856 114.437 33.3141 114.82 33.3141C115.188 33.3141 115.494 33.1856 115.739 32.9286C115.992 32.6636 116.118 32.3263 116.118 31.9168C116.118 31.5072 115.992 31.1699 115.739 30.9049ZM122.834 30.6278H121.456V34.603H119.802V30.6278H118.424V29.2305H122.834V30.6278ZM125.181 31.1819H127.421C127.359 30.925 127.248 30.7162 127.088 30.5555C126.881 30.3548 126.621 30.2544 126.307 30.2544C125.97 30.2544 125.69 30.3708 125.468 30.6037C125.315 30.7724 125.22 30.9651 125.181 31.1819ZM128.948 32.0372V32.2179H125.124C125.124 32.5873 125.227 32.8925 125.434 33.1334C125.633 33.3583 125.916 33.4707 126.284 33.4707C126.559 33.4707 126.781 33.4185 126.95 33.3141C127.08 33.2418 127.199 33.0933 127.306 32.8684L128.868 33.037C128.692 33.6233 128.362 34.073 127.88 34.3862C127.459 34.6512 126.919 34.7837 126.261 34.7837C125.388 34.7837 124.707 34.5267 124.217 34.0128C123.704 33.4747 123.447 32.7841 123.447 31.9408C123.447 31.0896 123.707 30.3829 124.228 29.8207C124.718 29.3068 125.373 29.0498 126.192 29.0498C127.057 29.0498 127.735 29.3188 128.225 29.8569C128.707 30.3949 128.948 31.1217 128.948 32.0372ZM133.115 34.603V32.7961C132.779 32.8845 132.434 32.9286 132.082 32.9286C131.301 32.9286 130.738 32.756 130.394 32.4106C130.08 32.0974 129.923 31.6357 129.923 31.0253V29.2305H131.554V30.7844C131.554 31.0494 131.622 31.2462 131.76 31.3747C131.89 31.4951 132.112 31.5554 132.426 31.5554C132.687 31.5554 132.916 31.5192 133.115 31.447V29.2305H134.769V34.603H133.115ZM136.177 34.603V29.2305H137.831V31.0976H139.68V29.2305H141.333V34.603H139.68V32.495H137.831V34.603H136.177ZM146.669 29.8328V29.2305H148.322V34.603H146.669V33.9525C146.324 34.5067 145.819 34.7837 145.153 34.7837C144.364 34.7837 143.725 34.5107 143.235 33.9646C142.737 33.4105 142.488 32.7399 142.488 31.9529C142.488 31.0615 142.752 30.3387 143.281 29.7846C143.748 29.2947 144.341 29.0498 145.061 29.0498C145.765 29.0498 146.301 29.3108 146.669 29.8328ZM145.474 30.5435C145.114 30.5435 144.812 30.672 144.567 30.929C144.314 31.194 144.188 31.5192 144.188 31.9047C144.188 32.2902 144.303 32.6114 144.532 32.8684C144.785 33.1495 145.111 33.29 145.509 33.29C145.846 33.29 146.133 33.1655 146.37 32.9166C146.638 32.6516 146.772 32.3143 146.772 31.9047C146.772 31.4951 146.646 31.1659 146.393 30.9169C146.148 30.668 145.842 30.5435 145.474 30.5435ZM149.294 34.603L150.764 32.6636C150.412 32.5994 150.117 32.4428 149.88 32.1938C149.62 31.9288 149.49 31.5674 149.49 31.1097C149.49 30.5555 149.647 30.1138 149.96 29.7846C150.32 29.4152 150.883 29.2305 151.649 29.2305H154.095V34.603H152.441V32.8082H152.28L151.086 34.603H149.294ZM152.441 31.6758V30.4592H151.855C151.618 30.4592 151.446 30.5033 151.339 30.5917C151.208 30.7041 151.143 30.8687 151.143 31.0856C151.143 31.2542 151.197 31.3948 151.304 31.5072C151.427 31.6196 151.622 31.6758 151.89 31.6758H152.441ZM162.164 29.3509V30.929C161.85 30.6559 161.49 30.5194 161.084 30.5194C160.701 30.5194 160.387 30.6479 160.142 30.9049C159.89 31.1699 159.763 31.5072 159.763 31.9168C159.763 32.3022 159.878 32.6235 160.108 32.8804C160.361 33.1695 160.694 33.3141 161.107 33.3141C161.498 33.3141 161.85 33.1736 162.164 32.8925V34.4585C161.788 34.6753 161.352 34.7837 160.854 34.7837C160.058 34.7837 159.396 34.5147 158.868 33.9766C158.332 33.4305 158.064 32.7479 158.064 31.9288C158.064 31.0775 158.347 30.3708 158.914 29.8087C159.427 29.3027 160.077 29.0498 160.866 29.0498C161.325 29.0498 161.758 29.1502 162.164 29.3509ZM163.389 29.2305H165.042V32.3022L167.224 29.2305H168.763V34.603H167.11V31.4831L164.928 34.603H163.389V29.2305ZM174.024 29.3509V30.929C173.71 30.6559 173.35 30.5194 172.945 30.5194C172.562 30.5194 172.248 30.6479 172.003 30.9049C171.75 31.1699 171.624 31.5072 171.624 31.9168C171.624 32.3022 171.739 32.6235 171.968 32.8804C172.221 33.1695 172.554 33.3141 172.968 33.3141C173.358 33.3141 173.71 33.1736 174.024 32.8925V34.4585C173.649 34.6753 173.213 34.7837 172.715 34.7837C171.919 34.7837 171.256 34.5147 170.728 33.9766C170.192 33.4305 169.924 32.7479 169.924 31.9288C169.924 31.0775 170.207 30.3708 170.774 29.8087C171.287 29.3027 171.938 29.0498 172.726 29.0498C173.186 29.0498 173.618 29.1502 174.024 29.3509ZM179.354 30.6278H177.976V34.603H176.323V30.6278H174.944V29.2305H179.354V30.6278ZM181.702 31.1819H183.941C183.88 30.925 183.769 30.7162 183.608 30.5555C183.401 30.3548 183.141 30.2544 182.827 30.2544C182.49 30.2544 182.211 30.3708 181.989 30.6037C181.836 30.7724 181.74 30.9651 181.702 31.1819ZM185.469 32.0372V32.2179H181.644C181.644 32.5873 181.748 32.8925 181.954 33.1334C182.153 33.3583 182.437 33.4707 182.804 33.4707C183.08 33.4707 183.302 33.4185 183.47 33.3141C183.601 33.2418 183.719 33.0933 183.826 32.8684L185.388 33.037C185.212 33.6233 184.883 34.073 184.401 34.3862C183.98 34.6512 183.44 34.7837 182.781 34.7837C181.909 34.7837 181.227 34.5267 180.737 34.0128C180.224 33.4747 179.968 32.7841 179.968 31.9408C179.968 31.0896 180.228 30.3829 180.749 29.8207C181.239 29.3068 181.893 29.0498 182.712 29.0498C183.578 29.0498 184.255 29.3188 184.745 29.8569C185.227 30.3949 185.469 31.1217 185.469 32.0372ZM186.26 34.603L187.156 29.2305H188.465L189.797 32.2179L191.129 29.2305H192.438L193.334 34.603H191.749L191.336 31.7481L190.073 34.603H189.521L188.258 31.7481L187.845 34.603H186.26ZM198.308 29.8328V29.2305H199.961V34.603H198.308V33.9525C197.963 34.5067 197.458 34.7837 196.792 34.7837C196.003 34.7837 195.364 34.5107 194.874 33.9646C194.376 33.4105 194.127 32.7399 194.127 31.9529C194.127 31.0615 194.391 30.3387 194.92 29.7846C195.387 29.2947 195.98 29.0498 196.7 29.0498C197.404 29.0498 197.94 29.3108 198.308 29.8328ZM197.113 30.5435C196.753 30.5435 196.451 30.672 196.206 30.929C195.953 31.194 195.827 31.5192 195.827 31.9047C195.827 32.2902 195.942 32.6114 196.172 32.8684C196.424 33.1495 196.75 33.29 197.148 33.29C197.485 33.29 197.772 33.1655 198.009 32.9166C198.277 32.6516 198.411 32.3143 198.411 31.9047C198.411 31.4951 198.285 31.1659 198.032 30.9169C197.787 30.668 197.481 30.5435 197.113 30.5435Z" fill="#2A3235"/>
</g>
<defs>
<clipPath id="clip0_64_258">
<rect width="200" height="39" fill="white"/>
</clipPath>
</defs>
</svg>
